<svg xmlns="http://www.w3.org/2000/svg" width="314" height="153.593" viewBox="0 0 314 153.593">
  <g id="Globo_comentario" transform="translate(473 -2)" fill="#f1ecec">
    <path d="M -181.9991149902344 154.7752075195313 L -212.1763305664063 143.5314788818359 L -212.2607879638672 143.5000152587891 L -212.3509063720703 143.5000152587891 L -423.9999084472656 143.5000152587891 C -430.547607421875 143.5000152587891 -436.8992004394531 142.2177429199219 -442.8782958984375 139.6887817382813 C -448.6536254882813 137.2460479736328 -453.8405151367188 133.7489318847656 -458.2948913574219 129.2945861816406 C -462.7492370605469 124.8402786254883 -466.2463989257813 119.6534729003906 -468.6891784667969 113.8782424926758 C -471.2181396484375 107.8993148803711 -472.5003967285156 101.5478973388672 -472.5003967285156 95.00039672851563 L -472.5003967285156 51.00031661987305 C -472.5003967285156 44.45258712768555 -471.2181396484375 38.10100936889648 -468.6891784667969 32.12193298339844 C -466.2463989257813 26.34658622741699 -462.7492370605469 21.15970230102539 -458.2948913574219 16.70531845092773 C -453.8405151367188 12.25097179412842 -448.6536254882813 8.753817558288574 -442.8782958984375 6.31104850769043 C -436.8992004394531 3.782087087631226 -430.5476379394531 2.499817848205566 -423.9999084472656 2.499817848205566 L -207.9999084472656 2.499817848205566 C -201.4522094726563 2.499817848205566 -195.1006317138672 3.782087087631226 -189.1216735839844 6.31104850769043 C -183.3464050292969 8.753817558288574 -178.1596374511719 12.25093269348145 -173.7053680419922 16.70531845092773 C -169.2510986328125 21.15966415405273 -165.7540588378906 26.34658622741699 -163.3113708496094 32.12193298339844 C -160.7825164794922 38.10097122192383 -159.5002899169922 44.45258712768555 -159.5002899169922 51.00031661987305 L -159.5002899169922 95.00039672851563 C -159.5002899169922 104.1914749145508 -162.0822143554688 113.1365509033203 -166.9669494628906 120.8685836791992 C -171.7212524414063 128.3941650390625 -178.4376678466797 134.4673614501953 -186.39013671875 138.4315795898438 L -186.7652130126953 138.6185913085938 L -186.6466369628906 139.0205535888672 L -181.9991149902344 154.7752075195313 Z" stroke="none"/>
    <path d="M -182.7616424560547 153.95751953125 L -187.1262054443359 139.1620635986328 L -187.3633728027344 138.3581085205078 L -186.6132049560547 137.9841461181641 C -178.7425384521484 134.0606536865234 -172.0951538085938 128.0498504638672 -167.3896636962891 120.6015243530273 C -162.5554962158203 112.9495239257813 -160.0002899169922 104.0968170166016 -160.0002899169922 95.00039672851563 L -160.0002899169922 51.00031280517578 C -160.0002899169922 44.51985549926758 -161.2692413330078 38.23377227783203 -163.7718658447266 32.31668853759766 C -166.1893615722656 26.60093879699707 -169.6504058837891 21.46748161315918 -174.0589141845703 17.05885696411133 C -178.4674072265625 12.65023136138916 -183.6007843017578 9.189105987548828 -189.3164520263672 6.771522998809814 C -195.2334442138672 4.268814563751221 -201.5194854736328 2.999814510345459 -207.9999084472656 2.999814510345459 L -423.9999084472656 2.999814510345459 C -430.4803161621094 2.999814510345459 -436.7664184570313 4.268814563751221 -442.6835021972656 6.771522998809814 C -448.3992309570313 9.189105987548828 -453.5326843261719 12.65027332305908 -457.9413146972656 17.05885696411133 C -462.3499450683594 21.46748161315918 -465.8111267089844 26.60098075866699 -468.2286987304688 32.31668853759766 C -470.7314147949219 38.23381423950195 -472.0003967285156 44.51985549926758 -472.0003967285156 51.00031280517578 L -472.0003967285156 95.00039672851563 C -472.0003967285156 101.4806060791016 -470.7314147949219 107.7665252685547 -468.2286987304688 113.683479309082 C -465.8111267089844 119.3991088867188 -462.3499450683594 124.5324783325195 -457.9413146972656 128.9410705566406 C -453.5326843261719 133.349609375 -448.3992309570313 136.8107757568359 -442.6835021972656 139.2283172607422 C -436.7664184570313 141.7310180664063 -430.4803161621094 143.0000152587891 -423.9999084472656 143.0000152587891 L -212.3509063720703 143.0000152587891 L -212.170654296875 143.0000152587891 L -212.0017852783203 143.0629425048828 L -182.7616424560547 153.95751953125 M -181.2366180419922 155.5928955078125 L -212.3509063720703 144.0000152587891 L -423.9999084472656 144.0000152587891 C -451.0619812011719 144.0000152587891 -473.0003967285156 122.0616073608398 -473.0003967285156 95.00039672851563 L -473.0003967285156 51.00031280517578 C -473.0003967285156 23.93819046020508 -451.0619812011719 1.999814510345459 -423.9999084472656 1.999814510345459 L -207.9999084472656 1.999814510345459 C -180.9377899169922 1.999814510345459 -159.0002899169922 23.93819046020508 -159.0002899169922 51.00031280517578 L -159.0002899169922 95.00039672851563 C -159.0002899169922 114.2177276611328 -170.0618591308594 130.8507690429688 -186.1670684814453 138.8791046142578 L -181.2366180419922 155.5928955078125 Z" stroke="none" fill="#707070"/>
  </g>
</svg>
