<svg id="Instagram" xmlns="http://www.w3.org/2000/svg" width="16.546" height="16.546" viewBox="0 0 16.546 16.546">
  <path id="Trazado_8" data-name="Trazado 8" d="M11.979,0H4.566A4.571,4.571,0,0,0,0,4.566V11.98a4.571,4.571,0,0,0,4.566,4.566h7.414a4.571,4.571,0,0,0,4.566-4.566V4.566A4.571,4.571,0,0,0,11.979,0Zm3.1,11.98a3.1,3.1,0,0,1-3.1,3.1H4.566a3.1,3.1,0,0,1-3.1-3.1V4.566a3.1,3.1,0,0,1,3.1-3.1h7.414a3.1,3.1,0,0,1,3.1,3.1V11.98Z" fill="#fff"/>
  <path id="Trazado_9" data-name="Trazado 9" d="M45.231,40.97a4.263,4.263,0,1,0,4.263,4.263A4.268,4.268,0,0,0,45.231,40.97Zm0,7.058a2.8,2.8,0,1,1,2.8-2.8A2.8,2.8,0,0,1,45.231,48.028Z" transform="translate(-36.959 -36.96)" fill="#fff"/>
  <path id="Trazado_10" data-name="Trazado 10" d="M120,28.251a1.076,1.076,0,1,0,.761.315A1.081,1.081,0,0,0,120,28.251Z" transform="translate(-107.283 -25.486)" fill="#fff"/>
</svg>
