<svg id="Instagram_cell" xmlns="http://www.w3.org/2000/svg" width="34.137" height="34.137" viewBox="0 0 34.137 34.137">
  <path id="Trazado_5" data-name="Trazado 5" d="M24.716,0H9.42A9.431,9.431,0,0,0,0,9.421v15.3a9.431,9.431,0,0,0,9.42,9.421h15.3a9.431,9.431,0,0,0,9.421-9.421V9.421A9.431,9.431,0,0,0,24.716,0Zm6.392,24.717a6.4,6.4,0,0,1-6.392,6.392H9.42a6.4,6.4,0,0,1-6.392-6.392V9.421A6.4,6.4,0,0,1,9.42,3.029h15.3a6.4,6.4,0,0,1,6.392,6.392v15.3Z" fill="#fff"/>
  <path id="Trazado_6" data-name="Trazado 6" d="M49.764,40.97a8.8,8.8,0,1,0,8.8,8.8A8.806,8.806,0,0,0,49.764,40.97Zm0,14.563a5.767,5.767,0,1,1,5.767-5.767A5.774,5.774,0,0,1,49.764,55.533Z" transform="translate(-32.696 -32.697)" fill="#fff"/>
  <path id="Trazado_7" data-name="Trazado 7" d="M121.142,28.251a2.22,2.22,0,1,0,1.571.65A2.23,2.23,0,0,0,121.142,28.251Z" transform="translate(-94.908 -22.547)" fill="#fff"/>
</svg>
