<svg id="Instagram_pc" xmlns="http://www.w3.org/2000/svg" width="41" height="41" viewBox="0 0 41 41">
  <path id="Trazado_5" data-name="Trazado 5" d="M29.685,0H11.314A11.327,11.327,0,0,0,0,11.315V29.685A11.327,11.327,0,0,0,11.314,41H29.685A11.327,11.327,0,0,0,41,29.685V11.315A11.327,11.327,0,0,0,29.685,0Zm7.677,29.685a7.686,7.686,0,0,1-7.677,7.677H11.314a7.685,7.685,0,0,1-7.677-7.677V11.315a7.685,7.685,0,0,1,7.677-7.677H29.685a7.686,7.686,0,0,1,7.677,7.677V29.685Z" fill="#fff"/>
  <path id="Trazado_6" data-name="Trazado 6" d="M51.533,40.97A10.564,10.564,0,1,0,62.1,51.535,10.577,10.577,0,0,0,51.533,40.97Zm0,17.491a6.927,6.927,0,1,1,6.927-6.926A6.935,6.935,0,0,1,51.533,58.461Z" transform="translate(-31.033 -31.034)" fill="#fff"/>
  <path id="Trazado_7" data-name="Trazado 7" d="M121.589,28.251a2.666,2.666,0,1,0,1.887.781A2.678,2.678,0,0,0,121.589,28.251Z" transform="translate(-90.081 -21.4)" fill="#fff"/>
</svg>
