<svg xmlns="http://www.w3.org/2000/svg" width="15.308" height="15.308" viewBox="0 0 15.308 15.308">
  <g id="telefono" transform="translate(0 0)">
    <path id="Trazado_11" data-name="Trazado 11" d="M11,15.308a4.265,4.265,0,0,1-1.463-.261,15.6,15.6,0,0,1-5.666-3.611A15.6,15.6,0,0,1,.262,5.769,4.234,4.234,0,0,1,.046,3.688,4.342,4.342,0,0,1,2.277.51,4.263,4.263,0,0,1,4.318,0a.478.478,0,0,1,.468.378l.751,3.5a.478.478,0,0,1-.129.438L4.124,5.6a12.592,12.592,0,0,0,5.58,5.58L10.988,9.9a.479.479,0,0,1,.438-.129l3.5.751a.478.478,0,0,1,.378.468,4.262,4.262,0,0,1-.51,2.041,4.342,4.342,0,0,1-3.178,2.232,4.255,4.255,0,0,1-.618.045ZM3.936.978A3.352,3.352,0,0,0,1.161,5.443a14.509,14.509,0,0,0,8.7,8.7,3.352,3.352,0,0,0,4.465-2.775l-2.85-.611L10.14,12.1A.478.478,0,0,1,9.6,12.2,13.545,13.545,0,0,1,3.112,5.71a.478.478,0,0,1,.095-.542l1.34-1.34Z" transform="translate(0 0)" fill="#fff"/>
  </g>
</svg>
