<svg xmlns="http://www.w3.org/2000/svg" width="40.804" height="41" viewBox="0 0 40.804 41">
  <path id="whatsapp_pc" d="M35.109,5.958A20.321,20.321,0,0,0,3.132,30.472L.25,41l10.77-2.825a20.3,20.3,0,0,0,9.709,2.473h.009A20.325,20.325,0,0,0,35.109,5.958ZM20.737,37.217H20.73a16.865,16.865,0,0,1-8.595-2.354l-.616-.366L5.128,36.173l1.706-6.231-.4-.639a16.886,16.886,0,1,1,14.3,7.913ZM30,24.569c-.507-.254-3-1.482-3.469-1.652s-.8-.254-1.142.254-1.311,1.652-1.608,1.99-.592.381-1.1.127A13.866,13.866,0,0,1,18.6,22.77a15.313,15.313,0,0,1-2.824-3.516c-.3-.508,0-.757.223-1.036a14.36,14.36,0,0,0,1.269-1.736.934.934,0,0,0-.043-.889c-.127-.254-1.142-2.753-1.565-3.769-.412-.989-.831-.856-1.142-.871-.3-.015-.634-.018-.973-.018a1.865,1.865,0,0,0-1.354.635A5.694,5.694,0,0,0,10.414,15.8a9.875,9.875,0,0,0,2.073,5.251c.254.339,3.58,5.466,8.672,7.665a29.057,29.057,0,0,0,2.894,1.07,6.959,6.959,0,0,0,3.2.2c.975-.146,3-1.228,3.427-2.414a4.242,4.242,0,0,0,.3-2.414c-.127-.212-.465-.339-.973-.593Zm0,0" transform="translate(-0.25)" fill="#fff" fill-rule="evenodd"/>
</svg>
