<svg xmlns="http://www.w3.org/2000/svg" width="15.426" height="15.5" viewBox="0 0 15.426 15.5">
  <path id="whatsapp" d="M13.428,2.253A7.682,7.682,0,0,0,1.339,11.52L.25,15.5l4.072-1.068a7.673,7.673,0,0,0,3.67.935H8A7.684,7.684,0,0,0,13.428,2.253ZM8,14.07h0a6.376,6.376,0,0,1-3.249-.89l-.233-.138-2.416.634.645-2.356-.152-.242A6.384,6.384,0,1,1,8,14.07Zm3.5-4.781c-.192-.1-1.135-.56-1.311-.624s-.3-.1-.432.1-.5.624-.608.752-.224.144-.416.048a5.242,5.242,0,0,1-1.543-.953A5.789,5.789,0,0,1,6.119,7.279c-.112-.192,0-.286.084-.392a5.429,5.429,0,0,0,.48-.656.353.353,0,0,0-.016-.336c-.048-.1-.432-1.041-.592-1.425s-.314-.324-.432-.329-.24-.007-.368-.007a.7.7,0,0,0-.512.24,2.152,2.152,0,0,0-.672,1.6A3.733,3.733,0,0,0,4.876,7.96a8.554,8.554,0,0,0,3.278,2.9,10.985,10.985,0,0,0,1.094.4,2.631,2.631,0,0,0,1.209.076,1.977,1.977,0,0,0,1.3-.913,1.6,1.6,0,0,0,.112-.913c-.048-.08-.176-.128-.368-.224Zm0,0" transform="translate(-0.25)" fill="#fff" fill-rule="evenodd"/>
</svg>
