<svg xmlns="http://www.w3.org/2000/svg" width="33.974" height="34.137" viewBox="0 0 33.974 34.137">
  <path id="whatsapp_cell" d="M29.274,4.961A16.92,16.92,0,0,0,2.65,25.372L.25,34.137l8.967-2.352A16.9,16.9,0,0,0,17.3,33.844h.007A16.923,16.923,0,0,0,29.274,4.961ZM17.308,30.987H17.3a14.042,14.042,0,0,1-7.156-1.96l-.513-.3-5.321,1.4,1.42-5.188L5.4,24.4a14.06,14.06,0,1,1,11.91,6.589Zm7.712-10.53c-.423-.212-2.5-1.234-2.888-1.375s-.669-.211-.951.212-1.092,1.375-1.338,1.657-.493.318-.916.106a11.545,11.545,0,0,1-3.4-2.1,12.75,12.75,0,0,1-2.351-2.928c-.246-.423,0-.63.185-.863a11.956,11.956,0,0,0,1.057-1.446.777.777,0,0,0-.035-.741c-.105-.211-.951-2.292-1.3-3.138-.343-.824-.692-.713-.951-.726S11.6,9.1,11.319,9.1a1.552,1.552,0,0,0-1.127.529,4.741,4.741,0,0,0-1.479,3.526,8.222,8.222,0,0,0,1.726,4.372c.211.282,2.981,4.551,7.22,6.382a24.194,24.194,0,0,0,2.41.891,5.794,5.794,0,0,0,2.662.168,4.354,4.354,0,0,0,2.853-2.01,3.532,3.532,0,0,0,.246-2.01c-.105-.176-.387-.282-.81-.494Zm0,0" transform="translate(-0.25)" fill="#fff" fill-rule="evenodd"/>
</svg>
